<svg xmlns="http://www.w3.org/2000/svg" width="144" height="144" viewBox="0 0 144 144">
<!-- Icon: Phosphor Icons (https://phosphoricons.com), MIT License -->
<defs>
<linearGradient id="background" x1="0" y1="0" x2="1" y2="1"><stop offset="0.00" stop-color="#38BDF8"/><stop offset="1.00" stop-color="#0369A1"/></linearGradient>
<radialGradient id="highlight" cx="0.28" cy="0.1" r="0.95"><stop offset="0" stop-color="#FFFFFF" stop-opacity="0.32"/><stop offset="0.6" stop-color="#FFFFFF" stop-opacity="0"/></radialGradient>
</defs>
<rect width="144" height="144" fill="url(#background)"/>
<rect width="144" height="144" fill="url(#highlight)"/>
<g transform="translate(41 19) scale(0.24219)" fill="#000000" fill-opacity="0.22"><path d="M224,128a8,8,0,0,1-8,8H120v64a8,8,0,0,1-13.66,5.66l-72-72a8,8,0,0,1,0-11.32l72-72A8,8,0,0,1,120,56v64h96A8,8,0,0,1,224,128Z"/></g>
<g transform="translate(41 16) scale(0.24219)" fill="#FFFFFF"><path d="M224,128a8,8,0,0,1-8,8H120v64a8,8,0,0,1-13.66,5.66l-72-72a8,8,0,0,1,0-11.32l72-72A8,8,0,0,1,120,56v64h96A8,8,0,0,1,224,128Z"/></g>
</svg>
