<svg xmlns="http://www.w3.org/2000/svg" width="144" height="144" viewBox="0 0 144 144">
<!-- Icon: Phosphor Icons (https://phosphoricons.com), MIT License -->
<defs>
<linearGradient id="background" x1="0" y1="0" x2="1" y2="1"><stop offset="0.00" stop-color="#2DD4BF"/><stop offset="1.00" stop-color="#0F766E"/></linearGradient>
<radialGradient id="highlight" cx="0.28" cy="0.1" r="0.95"><stop offset="0" stop-color="#FFFFFF" stop-opacity="0.32"/><stop offset="0.6" stop-color="#FFFFFF" stop-opacity="0"/></radialGradient>
</defs>
<rect width="144" height="144" fill="url(#background)"/>
<rect width="144" height="144" fill="url(#highlight)"/>
<g transform="translate(41 19) scale(0.24219)" fill="#000000" fill-opacity="0.22"><path d="M80,128V64a48,48,0,0,1,96,0v64a48,48,0,0,1-96,0Zm128,0a8,8,0,0,0-16,0,64,64,0,0,1-128,0,8,8,0,0,0-16,0,80.11,80.11,0,0,0,72,79.6V240a8,8,0,0,0,16,0V207.6A80.11,80.11,0,0,0,208,128Z"/></g>
<g transform="translate(41 16) scale(0.24219)" fill="#FFFFFF"><path d="M80,128V64a48,48,0,0,1,96,0v64a48,48,0,0,1-96,0Zm128,0a8,8,0,0,0-16,0,64,64,0,0,1-128,0,8,8,0,0,0-16,0,80.11,80.11,0,0,0,72,79.6V240a8,8,0,0,0,16,0V207.6A80.11,80.11,0,0,0,208,128Z"/></g>
</svg>
