<svg xmlns="http://www.w3.org/2000/svg" width="144" height="144" viewBox="0 0 144 144">
<!-- Icon: Phosphor Icons (https://phosphoricons.com), MIT License -->
<defs>
<linearGradient id="background" x1="0" y1="0" x2="1" y2="1"><stop offset="0.00" stop-color="#38BDF8"/><stop offset="1.00" stop-color="#0369A1"/></linearGradient>
<radialGradient id="highlight" cx="0.28" cy="0.1" r="0.95"><stop offset="0" stop-color="#FFFFFF" stop-opacity="0.32"/><stop offset="0.6" stop-color="#FFFFFF" stop-opacity="0"/></radialGradient>
</defs>
<rect width="144" height="144" fill="url(#background)"/>
<rect width="144" height="144" fill="url(#highlight)"/>
<g transform="translate(33 36) scale(0.30469)" fill="#000000" fill-opacity="0.22"><path d="M184,32H72A16,16,0,0,0,56,48V224a8,8,0,0,0,12.24,6.78L128,193.43l59.77,37.35A8,8,0,0,0,200,224V48A16,16,0,0,0,184,32Z"/></g>
<g transform="translate(33 33) scale(0.30469)" fill="#FFFFFF"><path d="M184,32H72A16,16,0,0,0,56,48V224a8,8,0,0,0,12.24,6.78L128,193.43l59.77,37.35A8,8,0,0,0,200,224V48A16,16,0,0,0,184,32Z"/></g>
</svg>
