<svg xmlns="http://www.w3.org/2000/svg" width="144" height="144" viewBox="0 0 144 144">
<!-- Icon: Phosphor Icons (https://phosphoricons.com), MIT License -->
<defs>
<linearGradient id="background" x1="0" y1="0" x2="1" y2="1"><stop offset="0.00" stop-color="#F472B6"/><stop offset="1.00" stop-color="#BE185D"/></linearGradient>
<radialGradient id="highlight" cx="0.28" cy="0.1" r="0.95"><stop offset="0" stop-color="#FFFFFF" stop-opacity="0.32"/><stop offset="0.6" stop-color="#FFFFFF" stop-opacity="0"/></radialGradient>
</defs>
<rect width="144" height="144" fill="url(#background)"/>
<rect width="144" height="144" fill="url(#highlight)"/>
<g transform="translate(33 36) scale(0.30469)" fill="#000000" fill-opacity="0.22"><path d="M160,32.25V223.69a8.29,8.29,0,0,1-3.91,7.18,8,8,0,0,1-9-.56l-65.57-51A4,4,0,0,1,80,176.16V79.84a4,4,0,0,1,1.55-3.15l65.57-51a8,8,0,0,1,10,.16A8.27,8.27,0,0,1,160,32.25ZM60,80H32A16,16,0,0,0,16,96v64a16,16,0,0,0,16,16H60a4,4,0,0,0,4-4V84A4,4,0,0,0,60,80ZM198,101.56a8,8,0,1,0-12,10.58,24,24,0,0,1,0,31.72,8,8,0,1,0,12,10.58,40,40,0,0,0,0-52.88Z"/></g>
<g transform="translate(33 33) scale(0.30469)" fill="#FFFFFF"><path d="M160,32.25V223.69a8.29,8.29,0,0,1-3.91,7.18,8,8,0,0,1-9-.56l-65.57-51A4,4,0,0,1,80,176.16V79.84a4,4,0,0,1,1.55-3.15l65.57-51a8,8,0,0,1,10,.16A8.27,8.27,0,0,1,160,32.25ZM60,80H32A16,16,0,0,0,16,96v64a16,16,0,0,0,16,16H60a4,4,0,0,0,4-4V84A4,4,0,0,0,60,80ZM198,101.56a8,8,0,1,0-12,10.58,24,24,0,0,1,0,31.72,8,8,0,1,0,12,10.58,40,40,0,0,0,0-52.88Z"/></g>
</svg>
